# Blender v2.78 (sub 0) OBJ File: 'claim_block_base.blend'
# www.blender.org
mtllib claim_block_base.mtl
o claimBlockBase_Cube.001
v -0.500000 0.000000 0.500000
v -0.375000 1.000000 0.375000
v -0.500000 0.000000 -0.500000
v -0.375000 1.000000 -0.375000
v 0.500000 0.000000 0.500000
v 0.375000 1.000000 0.375000
v 0.500000 0.000000 -0.500000
v 0.375000 1.000000 -0.375000
v -0.500000 0.187500 0.500000
v -0.500000 0.187500 -0.500000
v 0.500000 0.187500 -0.500000
v 0.500000 0.187500 0.500000
v -0.375000 0.187500 0.375000
v -0.375000 0.187500 -0.375000
v 0.375000 0.187500 -0.375000
v 0.375000 0.187500 0.375000
vt 0.1750 0.0938
vt 0.1750 0.5000
vt 0.0250 0.5000
vt 0.0250 0.0938
vt 0.7750 0.0938
vt 0.7750 0.5000
vt 0.6250 0.5000
vt 0.6250 0.0938
vt 0.4250 0.0938
vt 0.4250 0.5000
vt 0.5750 0.5000
vt 0.5750 0.0938
vt 0.2250 0.0938
vt 0.2250 0.5000
vt 0.3750 0.5000
vt 0.3750 0.0938
vt 0.4000 0.5000
vt 0.2000 0.5000
vt 0.2000 1.0000
vt 0.4000 1.0000
vt 0.0250 0.5625
vt 0.1750 0.5625
vt 0.1750 0.9375
vt 0.0250 0.9375
vt 0.0000 0.0000
vt 0.0000 0.0938
vt 0.2000 0.0938
vt 0.2000 0.0000
vt 0.2000 0.0000
vt 0.2000 0.0938
vt 0.4000 0.0938
vt 0.4000 0.0000
vt 0.6000 -0.0000
vt 0.6000 0.0938
vt 0.4000 0.0938
vt 0.4000 -0.0000
vt 0.8000 0.0000
vt 0.8000 0.0938
vt 0.2000 0.5000
vt 0.1750 0.5625
vt 0.0250 0.5625
vt 0.0000 0.5000
vt 0.2000 1.0000
vt 0.1750 0.9375
vt 0.0000 1.0000
vt 0.0250 0.9375
vn -1.0000 0.0000 0.0000
vn 0.0000 0.0000 -1.0000
vn 1.0000 0.0000 0.0000
vn 0.0000 0.0000 1.0000
vn 0.0000 -1.0000 0.0000
vn 0.0000 1.0000 0.0000
usemtl claimBlockMaterial
s off
f 13/1/1 2/2/1 4/3/1 14/4/1
f 14/5/2 4/6/2 8/7/2 15/8/2
f 15/9/3 8/10/3 6/11/3 16/12/3
f 16/13/4 6/14/4 2/15/4 13/16/4
f 3/17/5 7/18/5 5/19/5 1/20/5
f 8/21/6 4/22/6 2/23/6 6/24/6
f 5/25/4 12/26/4 9/27/4 1/28/4
f 7/29/3 11/30/3 12/31/3 5/32/3
f 3/33/2 10/34/2 11/35/2 7/36/2
f 1/37/1 9/38/1 10/34/1 3/33/1
f 12/39/6 16/40/6 13/41/6 9/42/6
f 11/43/6 15/44/6 16/40/6 12/39/6
f 10/45/6 14/46/6 15/44/6 11/43/6
f 9/42/6 13/41/6 14/46/6 10/45/6
